<?xml version="1.0"?>
<svg xmlns="http://www.w3.org/2000/svg" xmlns:xlink="http://www.w3.org/1999/xlink" xmlns:svgjs="http://svgjs.com/svgjs" version="1.1" width="512" height="512" x="0" y="0" viewBox="0 0 510 510" style="enable-background:new 0 0 512 512" xml:space="preserve"><g><g xmlns="http://www.w3.org/2000/svg"><path d="m465 195h-31.619c6.382-29.159-6.308-59.767-32.777-75.311 6.146-23.633-.447-49.092-18.324-66.968-17.877-17.877-43.337-24.473-66.968-18.325-12.366-21.056-35.031-34.396-60.312-34.396-25.282 0-47.946 13.339-60.311 34.396-23.63-6.144-49.092.45-66.968 18.325-17.877 17.877-24.47 43.335-18.325 66.968-26.466 15.543-39.162 46.151-32.776 75.311h-31.62v105h47.874l45 210h234.253l45-210h47.873zm-332.082-53.141 17.009-5.382-8.222-15.833c-8.072-15.543-5.167-34.315 7.229-46.71 12.397-12.396 31.169-15.299 46.711-7.229l15.833 8.222 5.381-17.009c5.283-16.699 20.611-27.918 38.141-27.918s32.857 11.219 38.141 27.918l5.382 17.009 15.833-8.222c15.543-8.071 34.314-5.167 46.711 7.229 12.396 12.395 15.3 31.166 7.228 46.71l-8.222 15.833 17.009 5.382c22.621 7.157 33.62 31.842 24.979 53.141h-294.121c-8.639-21.299 2.356-45.983 24.978-53.141zm29.208 338.141-38.571-180h57.676l15.429 180zm64.643 0-15.428-180h87.318l-15.429 180zm121.105 0h-34.533l15.429-180h57.676zm87.126-210c-60.653 0-275.595 0-360 0v-45h360z" fill="#ffffff" data-original="#000000" style=""/><path d="m195 135h30v30h-30z" fill="#ffffff" data-original="#000000" style=""/><path d="m285 135h30v30h-30z" fill="#ffffff" data-original="#000000" style=""/><path d="m240 75h30v30h-30z" fill="#ffffff" data-original="#000000" style=""/></g></g></svg>
